<svg width="37" height="24" viewBox="0 0 37 24" fill="none" xmlns="http://www.w3.org/2000/svg">
<path fill-rule="evenodd" clip-rule="evenodd" d="M2.53682 23.9946C1.13577 23.9946 0 22.8435 0 21.4237V2.57085C0 1.151 1.13577 0 2.53682 0H11.8385C20.2946 0 20.2946 11.1403 15.2209 11.1403C20.2946 11.1403 21.9858 23.9946 11.8385 23.9946H2.53682ZM5.91925 10.2834C5.45224 10.2834 5.07364 9.89965 5.07364 9.42645V4.28475C5.07364 3.81147 5.45224 3.4278 5.91925 3.4278H10.1473C10.1473 3.4278 13.5297 3.4278 13.5297 6.8556C13.5297 10.2834 10.1473 10.2834 10.1473 10.2834H5.91925ZM5.91925 13.7112C5.45224 13.7112 5.07364 14.0949 5.07364 14.5681V19.7098C5.07364 20.1831 5.45224 20.5668 5.91925 20.5668H11.8385C11.8385 20.5668 14.3753 20.5668 14.3753 17.139C14.3753 13.7112 11.8385 13.7112 11.8385 13.7112H5.91925Z" fill="white"/>
<path fill-rule="evenodd" clip-rule="evenodd" d="M34.6682 15.431C36.07 15.431 37.2425 14.2596 36.9567 12.8689C34.85 2.6204 20.1471 3.56651 20.2946 15.431C20.407 24.4681 32.8677 27.3661 36.5366 19.1783C37.1196 17.8774 35.8109 17.1386 34.7328 17.1386C33.7745 17.1386 33.0316 18.0343 32.4194 18.7813C30.657 20.9323 25.3053 20.7762 24.5985 16.3065C24.5234 15.8322 24.9122 15.431 25.3861 15.431H34.6682ZM25.0611 11.9969C24.8118 11.9969 24.6508 11.7322 24.7839 11.5187C26.5759 8.64226 30.8839 8.67328 32.7077 11.5156C32.8445 11.729 32.6839 11.9969 32.4327 11.9969H25.0611Z" fill="white"/>
<path d="M25.3682 1.71387C24.4341 1.71387 23.677 2.48121 23.677 3.42777C23.677 4.37432 24.4341 5.14167 25.3682 5.14167H32.133C33.0671 5.14167 33.8243 4.37432 33.8243 3.42777C33.8243 2.48121 33.0671 1.71387 32.133 1.71387H25.3682Z" fill="white"/>
</svg>
