<svg width="26" height="24" viewBox="0 0 26 24" fill="none" xmlns="http://www.w3.org/2000/svg">
<g clip-path="url(#clip0_10_8)">
<path d="M5.73829 7.69714H0.670319V24H5.73829V7.69714Z" fill="white"/>
<path d="M3.09766 0C1.22891 0 0 1.2148 0 2.82773C0 4.41004 1.18828 5.65547 3.02656 5.65547H3.06719C4.97656 5.65547 6.16484 4.39983 6.15469 2.82773C6.11406 1.2148 4.96641 0 3.09766 0Z" fill="white"/>
<path d="M19.5812 7.54407C16.6766 7.54407 14.8586 9.13658 14.5234 10.2595V7.69719H8.82578C8.89687 9.05491 8.82578 24 8.82578 24H14.5234V15.1902C14.5234 14.69 14.5031 14.2 14.6453 13.8529C15.0312 12.8729 15.8742 11.852 17.3875 11.852C19.368 11.852 20.2617 13.3629 20.2617 15.5679V24H26.0102V14.935C26.0102 9.89201 23.1867 7.54407 19.5812 7.54407Z" fill="white"/>
</g>
<defs>
<clipPath id="clip0_10_8">
<rect width="26" height="24" fill="white"/>
</clipPath>
</defs>
</svg>
