<?xml version="1.0" standalone="no"?>
<!DOCTYPE svg PUBLIC "-//W3C//DTD SVG 1.1//EN" "http://www.w3.org/Graphics/SVG/1.1/DTD/svg11.dtd" >
<svg>
<metadata>
Created by FontForge 20090622 at Wed Nov 23 16:50:58 2016
 By ffonts
1.2, Copyright Copr. Castcraft Software, Inc. 1990-1991.
</metadata>
<defs>
<font id="OPTIVenus-BoldExtended" horiz-adv-x="332" >
  <font-face 
    font-family="OPTIVenus"
    font-weight="700"
    font-stretch="normal"
    units-per-em="1000"
    panose-1="2 0 8 7 6 0 0 2 0 4"
    ascent="800"
    descent="-200"
    x-height="642"
    cap-height="871"
    bbox="-96 -291 1706 1163"
    underline-thickness="50"
    underline-position="-50"
    stemh="146"
    stemv="248"
    unicode-range="U+0020-U+221E"
  />
<missing-glyph horiz-adv-x="543" 
 />
    <glyph glyph-name=".notdef" horiz-adv-x="543" 
 />
    <glyph glyph-name="exclam" unicode="!" horiz-adv-x="354" 
d="M53 871h248l-22 -632h-203zM53 175h248v-175h-248v175z" />
    <glyph glyph-name="quotedbl" unicode="&#x22;" horiz-adv-x="407" 
d="M134 526h-33l-44 233c-11 61 -5 133 54 133c66 0 77 -53 63 -133zM308 526h-33l-44 233c-11 61 -5 133 54 133c66 0 77 -53 63 -133z" />
    <glyph glyph-name="numbersign" unicode="#" horiz-adv-x="906" 
d="M407 777h123l-81 -228h130l81 228h124l-82 -228h151l-37 -103h-151l-49 -136h152l-37 -103h-151l-81 -229h-123l81 229h-130l-81 -229h-123l81 229h-151l37 103h151l48 136h-151l37 103h151zM364 310h129l49 136h-130z" />
    <glyph glyph-name="dollar" unicode="$" horiz-adv-x="1059" 
d="M605 887h1c191 -21 367 -109 372 -292h-266c-10 68 -36 113 -107 129v-207l98 -15c82 -14 302 -57 302 -253c0 -182 -155 -260 -400 -269v-129h-117v129c-257 10 -436 85 -460 287l275 1c22 -75 92 -109 185 -118v188l-62 8c-119 15 -348 62 -348 264
c0 176 189 275 410 282v114h117v-119zM606 150h1c92 9 139 37 139 87s-75 75 -140 86v-173zM490 729c-77 -9 -151 -38 -151 -98c0 -63 151 -95 151 -96c0 0 0 195 0 194z" />
    <glyph glyph-name="percent" unicode="%" horiz-adv-x="1213" 
d="M756 814h124l-426 -814h-119zM298 382h-1c-143 0 -248 77 -248 211c0 132 104 210 249 210c147 0 251 -75 251 -209c0 -135 -104 -212 -251 -212zM294 701c-48 0 -86 -47 -86 -103c0 -53 40 -95 90 -95c47 0 85 45 84 100c0 53 -40 98 -88 98zM911 0
c-142 0 -249 77 -249 212c0 132 105 210 249 210c147 0 252 -76 252 -210c0 -135 -105 -212 -252 -212zM908 318v1c-48 0 -85 -46 -85 -102c0 -53 40 -95 89 -96c48 0 85 45 85 101c0 53 -39 96 -89 96z" />
    <glyph glyph-name="ampersand" unicode="&#x26;" horiz-adv-x="1149" 
d="M663 460l137 -146c60 48 83 75 114 128l125 -111c-42 -65 -84 -102 -124 -139l180 -192h-322l-64 71c-88 -32 -227 -74 -361 -74c-204 0 -295 110 -294 235c0 162 167 239 286 285c-24 45 -41 94 -41 148c0 140 146 207 264 207c124 0 275 -70 275 -196
c0 -102 -76 -179 -175 -216zM649 677c0 39 -33 51 -58 51c-35 0 -67 -22 -67 -62c0 -25 11 -53 32 -84c70 30 93 60 93 95zM322 266c0 -95 125 -112 266 -62l-154 175c-64 -25 -112 -55 -112 -113z" />
    <glyph glyph-name="quotesingle" unicode="'" horiz-adv-x="328" 
d="M134 526h-33l-44 233c-11 61 -5 133 54 133c66 0 77 -53 63 -133z" />
    <glyph glyph-name="parenleft" unicode="(" horiz-adv-x="584" 
d="M530 893v-159h-79c-90 0 -152 -107 -152 -232v-330c0 -98 66 -184 150 -184h81v-160h-79c-271 0 -398 187 -397 569c0 293 168 496 375 496h101z" />
    <glyph glyph-name="parenright" unicode=")" horiz-adv-x="584" 
d="M53 892h101c208 0 376 -203 376 -496c0 -382 -127 -569 -397 -569h-80v160h82c84 0 150 86 150 184v330c0 125 -62 232 -152 232h-80v159z" />
    <glyph glyph-name="asterisk" unicode="*" horiz-adv-x="438" 
d="M237 669v-1c-16 -13 11 -65 11 -116c0 -19 -25 -28 -39 -28c-21 0 -32 12 -33 25c1 36 34 116 17 127c-22 12 -69 -62 -98 -80c-13 -4 -30 -1 -40 15c-8 14 -12 38 4 47c47 26 114 29 114 50c0 28 -67 23 -115 50c-17 9 -12 34 -4 46c11 17 28 21 40 16
c30 -19 75 -93 100 -78c16 11 -15 69 -15 123c0 19 24 28 39 28c21 -1 34 -15 34 -28c0 -35 -35 -113 -18 -124c21 -12 69 60 100 78c10 6 30 1 39 -16c9 -14 13 -37 -3 -46c-47 -27 -113 -29 -113 -51c0 -28 86 -30 116 -45c11 -9 17 -27 7 -45c-9 -14 -26 -31 -42 -21
c-48 29 -79 93 -101 74z" />
    <glyph glyph-name="plus" unicode="+" horiz-adv-x="799" 
d="M310 684h180v-254h256v-177h-256v-253h-180v253h-257v177h257v254z" />
    <glyph glyph-name="comma" unicode="," horiz-adv-x="327" 
d="M53 191h221v-125c0 -96 5 -174 -128 -251l-72 87c36 27 54 57 56 98h-77v191z" />
    <glyph glyph-name="hyphen" unicode="-" horiz-adv-x="551" 
d="M53 396h445v-166h-445v166z" />
    <glyph glyph-name="period" unicode="." 
d="M53 189h226v-189h-226v189z" />
    <glyph glyph-name="slash" unicode="/" horiz-adv-x="581" 
d="M447 846h94l-427 -846h-94z" />
    <glyph glyph-name="zero" unicode="0" horiz-adv-x="1096" 
d="M1027 424c0 -251 -180 -446 -494 -446c-313 0 -481 183 -481 449c0 245 173 444 486 443c313 0 489 -192 489 -446zM760 425h-1c0 163 -78 287 -221 287s-223 -127 -223 -285c0 -171 77 -287 220 -287s225 124 225 285z" />
    <glyph glyph-name="one" unicode="1" horiz-adv-x="1096" 
d="M499 871h177v-871h-238v600c-39 -18 -68 -35 -135 -39v146c99 27 156 72 196 164z" />
    <glyph glyph-name="two" unicode="2" horiz-adv-x="1095" 
d="M379 188h646v-188h-970c11 199 109 317 312 390l193 70c77 28 178 61 178 154c0 79 -76 127 -195 128c-125 0 -201 -70 -201 -181h-251c0 203 157 331 463 332c313 0 454 -108 453 -290c0 -167 -118 -206 -260 -252l-176 -56c-28 -9 -164 -62 -192 -107z" />
    <glyph glyph-name="three" unicode="3" horiz-adv-x="1096" 
d="M892 465h1c80 -48 128 -97 127 -208c0 -183 -180 -279 -520 -279c-292 0 -454 82 -454 270l246 -1c29 -104 119 -120 222 -120c111 0 232 35 231 142c0 101 -167 94 -209 94h-181v175h173c109 0 200 16 200 101c0 67 -79 102 -210 102c-78 0 -157 -5 -206 -98h-256
c21 167 196 249 472 249c268 0 472 -80 471 -252c0 -67 -18 -116 -107 -175z" />
    <glyph glyph-name="four" unicode="4" horiz-adv-x="1096" 
d="M59 343l463 528h303v-492h177v-181h-177v-198h-230v198h-536v145zM338 379h257v292z" />
    <glyph glyph-name="five" unicode="5" horiz-adv-x="1096" 
d="M188 871h800v-193h-627l-39 -147c115 40 206 64 298 64c148 0 410 -59 410 -304c0 -280 -293 -313 -521 -313c-223 0 -464 74 -477 284h275c16 -75 76 -128 208 -128c174 0 250 52 250 149c0 120 -128 153 -202 153c-62 0 -126 -20 -187 -81h-318z" />
    <glyph glyph-name="six" unicode="6" horiz-adv-x="1096" 
d="M1020 638l-277 -1c-13 71 -79 105 -149 105c-147 0 -252 -92 -263 -238c66 48 195 74 302 75c242 0 407 -122 407 -298c0 -151 -148 -303 -465 -303c-340 0 -523 157 -523 422c0 326 237 492 553 493c215 0 373 -70 415 -255zM337 284v-1c0 -78 63 -144 217 -144
c135 0 207 65 207 147c0 91 -91 140 -218 140c-108 0 -206 -48 -206 -142z" />
    <glyph glyph-name="seven" unicode="7" horiz-adv-x="1096" 
d="M55 871h966c30 -136 -22 -288 -231 -479l-100 -91c-99 -90 -148 -168 -142 -301h-267c-7 153 48 288 214 416l162 127c63 48 115 105 127 135h-729v193z" />
    <glyph glyph-name="eight" unicode="8" horiz-adv-x="1096" 
d="M883 466c111 -49 151 -117 150 -219c0 -152 -166 -269 -502 -269c-274 0 -476 96 -476 271c0 105 49 166 146 214c-76 51 -118 98 -119 175c0 158 157 254 442 255c359 0 479 -109 479 -245c0 -74 -35 -132 -120 -182zM354 653v1c0 -61 49 -108 188 -108
c147 0 186 51 186 97c0 58 -54 98 -200 98c-88 0 -174 -26 -174 -88zM326 262c0 -58 52 -133 240 -133c128 0 193 57 193 129c0 75 -89 127 -224 127c-129 0 -209 -36 -209 -123z" />
    <glyph glyph-name="nine" unicode="9" horiz-adv-x="1096" 
d="M66 233h277c13 -71 79 -105 148 -104c147 0 252 92 264 237c-66 -48 -195 -73 -302 -73c-243 0 -407 122 -408 296c0 152 148 303 466 304c340 0 523 -157 523 -423c0 -326 -237 -492 -553 -492c-216 0 -373 71 -415 255zM749 587c0 78 -64 144 -217 144
c-135 0 -207 -65 -207 -146c0 -91 91 -140 218 -141c108 0 206 48 206 143z" />
    <glyph glyph-name="colon" unicode=":" 
d="M53 189h226v-189h-226v189zM53 642h226v-189h-226v189z" />
    <glyph glyph-name="semicolon" unicode=";" 
d="M53 642h226v-189h-226v189zM53 191h226l1 -125c0 -96 4 -174 -130 -251l-71 87c35 27 55 57 56 98h-82v191z" />
    <glyph glyph-name="less" unicode="&#x3c;" horiz-adv-x="621" 
d="M53 284v126l514 191v-137l-317 -118l317 -118v-136z" />
    <glyph glyph-name="equal" unicode="=" horiz-adv-x="933" 
d="M879 578v-178h-826v178h826zM879 284v-177h-826v177h826z" />
    <glyph glyph-name="greater" unicode="&#x3e;" horiz-adv-x="621" 
d="M567 284l-514 -192v136l317 118l-317 118v137l514 -191v-126z" />
    <glyph glyph-name="question" unicode="?" horiz-adv-x="1013" 
d="M521 225h-213c-8 43 -7 39 -7 59c0 134 97 229 266 243c41 3 126 28 126 110c0 95 -130 108 -203 108c-52 0 -201 -10 -208 -97l-254 -1c34 145 143 245 478 245c266 0 454 -88 454 -254c0 -138 -126 -188 -223 -226l-86 -33c-91 -36 -125 -68 -130 -154zM303 189h226
v-189h-226v189z" />
    <glyph glyph-name="at" unicode="@" horiz-adv-x="1102" 
d="M643 271h1c-50 -83 -111 -109 -177 -108c-47 0 -114 21 -152 84c-42 69 -23 186 12 254c47 94 133 159 221 166c37 3 103 -5 136 -50c7 -8 12 -19 19 -34l20 66h148l-72 -249c-7 -24 -42 -124 -19 -147c13 -13 31 -18 55 -12c63 13 100 69 124 128c39 97 46 224 -25 324
c-82 116 -256 143 -349 138c-134 -6 -264 -65 -359 -236c-70 -123 -76 -298 -10 -422c73 -137 202 -191 320 -199c138 -10 255 24 391 104l32 -46c-209 -130 -451 -172 -659 -68v-1c-145 74 -239 216 -252 375c-11 147 35 325 212 452c162 116 410 131 569 61
c119 -52 200 -162 218 -289c12 -89 -15 -261 -122 -344c-56 -44 -140 -69 -205 -45c-44 16 -67 44 -77 98zM450 310c-1 -28 4 -51 28 -66c21 -13 49 -10 67 0c70 37 116 215 121 261c3 26 -1 60 -27 78c-17 15 -46 14 -64 7c-78 -31 -124 -239 -125 -280z" />
    <glyph glyph-name="A" unicode="A" horiz-adv-x="1087" 
d="M662 336l-127 300l-125 -300h252zM341 173l-71 -173h-255l364 871h322l366 -871h-265l-72 173h-389z" />
    <glyph glyph-name="B" unicode="B" horiz-adv-x="1102" 
d="M53 871l669 1c133 0 291 -39 291 -206c0 -79 -23 -128 -98 -191c86 -52 134 -111 134 -223c0 -134 -96 -252 -347 -252h-649v871zM302 551h332c75 0 101 23 101 69s-26 60 -108 60h-325v-129zM302 187h343c72 0 126 34 125 95c0 50 -29 93 -125 93h-343v-188z" />
    <glyph glyph-name="C" unicode="C" horiz-adv-x="1129" 
d="M1079 621h-303c-52 73 -147 103 -216 103c-134 0 -239 -102 -240 -286c0 -204 134 -276 253 -276c148 0 213 92 235 164h287c-26 -182 -186 -346 -513 -346c-353 0 -546 170 -546 442c0 333 239 470 543 470c260 0 444 -112 500 -271z" />
    <glyph glyph-name="D" unicode="D" horiz-adv-x="1122" 
d="M645 871v-1c220 0 438 -142 437 -423c0 -343 -226 -447 -434 -447h-595v871h592zM302 176h277c105 0 234 63 234 249c0 207 -162 261 -239 261h-272v-510z" />
    <glyph glyph-name="E" unicode="E" horiz-adv-x="986" 
d="M53 871h881v-187h-632v-131h522v-185h-522v-186h632v-182h-881v871z" />
    <glyph glyph-name="F" unicode="F" horiz-adv-x="928" 
d="M53 871h846v-186h-597v-133h509v-184h-509v-368h-249v871z" />
    <glyph glyph-name="G" unicode="G" horiz-adv-x="1114" 
d="M1063 621l-281 -1c-40 22 -54 97 -208 98c-163 0 -260 -123 -260 -296c0 -152 110 -274 289 -275c99 0 167 33 203 66v88h-181v187h436v-390c-60 -36 -251 -120 -476 -120c-309 0 -549 149 -549 446c0 326 241 468 540 468c251 0 426 -114 487 -271z" />
    <glyph glyph-name="H" unicode="H" horiz-adv-x="1113" 
d="M302 871v-311h509v311h249v-871h-249v378h-509v-378h-249v871h249z" />
    <glyph glyph-name="I" unicode="I" horiz-adv-x="355" 
d="M53 871h249v-871h-249v871z" />
    <glyph glyph-name="J" unicode="J" horiz-adv-x="953" 
d="M651 871h249v-560c0 -220 -101 -346 -473 -346c-307 0 -397 114 -397 361h243c0 -127 41 -179 187 -179c162 0 191 80 191 207v517z" />
    <glyph glyph-name="K" unicode="K" horiz-adv-x="1111" 
d="M53 871h249v-399l482 399h293l-394 -328l412 -543h-304l-293 389l-196 -161v-228h-249v871z" />
    <glyph glyph-name="L" unicode="L" horiz-adv-x="824" 
d="M53 871h249v-683h491v-188h-740v871z" />
    <glyph glyph-name="M" unicode="M" horiz-adv-x="1308" 
d="M449 871l205 -498l205 498h395v-871h-249v664l-270 -664h-156l-277 672v-672h-249v871h396z" />
    <glyph glyph-name="N" unicode="N" horiz-adv-x="1098" 
d="M53 871h279l467 -585v585h246v-871h-290l-453 568v-568h-249v871z" />
    <glyph glyph-name="O" unicode="O" horiz-adv-x="1188" 
d="M1153 436h1c0 -270 -221 -458 -559 -458c-332 0 -559 188 -559 458c0 276 227 456 558 456c338 0 559 -187 559 -456zM591 718c-172 0 -275 -105 -274 -282c0 -163 91 -284 274 -284c175 0 276 147 276 284c0 165 -113 282 -276 282z" />
    <glyph glyph-name="P" unicode="P" horiz-adv-x="1033" 
d="M648 871v-1c162 0 349 -53 349 -272c0 -234 -199 -287 -339 -287h-356v-311h-249v871h595zM302 689v-181h263c86 0 181 11 180 97c0 82 -93 84 -174 84h-269z" />
    <glyph glyph-name="Q" unicode="Q" horiz-adv-x="1188" 
d="M590 718c-172 0 -275 -105 -274 -282c0 -163 91 -284 274 -284c175 0 276 147 276 284c0 165 -113 282 -276 282zM993 100l216 -115l-135 -139l-286 156c-66 -20 -124 -24 -193 -24c-332 0 -559 188 -559 458c0 276 227 456 558 456c338 0 559 -187 559 -456
c0 -146 -53 -262 -160 -336z" />
    <glyph glyph-name="R" unicode="R" horiz-adv-x="1104" 
d="M690 871h-1c170 0 352 -58 353 -264c0 -154 -82 -234 -209 -269l253 -338h-314l-242 322h-228v-322h-249v871h637zM301 508l313 -1c66 0 182 9 182 93c0 85 -122 89 -185 89h-310v-181z" />
    <glyph glyph-name="S" unicode="S" horiz-adv-x="1038" 
d="M975 595l-267 -1c-13 88 -54 137 -180 137c-90 0 -194 -28 -195 -100c0 -63 96 -85 142 -93l223 -36c84 -14 304 -57 304 -254c0 -193 -177 -270 -451 -270c-292 0 -500 71 -526 289h275c25 -89 118 -119 239 -119c136 0 202 28 202 89c0 54 -89 79 -157 88l-161 21
c-120 15 -349 62 -349 263c0 182 203 283 433 284c225 0 460 -85 468 -298z" />
    <glyph glyph-name="T" unicode="T" horiz-adv-x="993" 
d="M29 871h935v-191h-342v-680h-250v680h-343v191z" />
    <glyph glyph-name="U" unicode="U" horiz-adv-x="1092" 
d="M53 871h249v-486c0 -139 20 -227 249 -228c228 0 242 95 242 228v486h247v-464c0 -257 -84 -432 -507 -432c-362 0 -480 152 -480 401v495z" />
    <glyph glyph-name="V" unicode="V" horiz-adv-x="1087" 
d="M16 871h255l265 -636l267 636h265l-366 -871h-322z" />
    <glyph glyph-name="W" unicode="W" horiz-adv-x="1727" 
d="M15 871h264l234 -535l242 535h192l234 -550l248 550h277l-393 -871h-254l-186 459l-207 -459h-263z" />
    <glyph glyph-name="X" unicode="X" horiz-adv-x="1140" 
d="M358 871l213 -242l212 242h300l-362 -410l397 -461h-304l-244 284l-249 -284h-307l395 452l-360 419h309z" />
    <glyph glyph-name="Y" unicode="Y" horiz-adv-x="1110" 
d="M11 871h271l281 -419l279 419h259l-418 -624v-247h-249v245z" />
    <glyph glyph-name="Z" unicode="Z" horiz-adv-x="1074" 
d="M65 683v188h946v-141l-554 -544h576v-186h-980v147l547 536h-535z" />
    <glyph glyph-name="bracketleft" unicode="[" horiz-adv-x="361" 
d="M191 840v-870h117v-57h-255v980h255v-53h-117z" />
    <glyph glyph-name="backslash" unicode="\" horiz-adv-x="627" 
d="M148 847l426 -847h-94l-427 847h95z" />
    <glyph glyph-name="bracketright" unicode="]" horiz-adv-x="361" 
d="M168 840h-115v53h255v-980h-255v57h115v870z" />
    <glyph glyph-name="asciicircum" unicode="^" horiz-adv-x="636" 
d="M195 921h245l143 -196h-158l-111 110l-110 -110h-151z" />
    <glyph glyph-name="underscore" unicode="_" horiz-adv-x="608" 
d="M567 -134h-632v74h632v-74z" />
    <glyph glyph-name="grave" unicode="`" horiz-adv-x="433" 
d="M53 923h202l124 -198h-129z" />
    <glyph glyph-name="a" unicode="a" horiz-adv-x="922" 
d="M889 173v-173h-181c-52 0 -95 18 -102 83c-98 -66 -210 -105 -316 -105c-118 0 -254 64 -254 201c0 159 180 225 377 225c72 0 186 -2 185 -2c11 55 -6 114 -124 114c-120 0 -252 -28 -300 -41l-93 119c59 33 226 73 390 73c200 0 345 -41 345 -188v-257
c0 -27 12 -51 49 -51c12 0 24 2 24 2zM267 185h1c0 -35 42 -63 83 -64c68 0 202 34 247 142c-42 18 -80 25 -133 25c-80 0 -198 -34 -198 -103z" />
    <glyph glyph-name="b" unicode="b" horiz-adv-x="940" 
d="M53 871h226l1 -310c43 53 136 106 274 107c171 0 351 -110 351 -328c0 -220 -153 -362 -366 -362c-87 0 -213 46 -260 88l3 -66h-229v871zM279 339c0 -105 46 -179 186 -179c113 0 187 72 187 177c0 80 -62 154 -179 154c-148 0 -194 -64 -194 -152z" />
    <glyph glyph-name="c" unicode="c" horiz-adv-x="927" 
d="M883 420h-249c-38 79 -87 106 -169 106c-84 0 -183 -67 -183 -216c0 -120 91 -192 189 -191c55 0 140 27 176 123h245c-42 -165 -163 -264 -418 -264c-261 0 -438 139 -438 340c0 223 179 349 444 349c246 0 375 -112 403 -247z" />
    <glyph glyph-name="d" unicode="d" horiz-adv-x="940" 
d="M887 871v-871h-227l2 66c-48 -42 -174 -88 -260 -87c-214 0 -366 142 -366 361c0 217 179 327 350 327c139 0 231 -53 276 -106v310h225zM662 339c0 88 -47 152 -195 152c-117 0 -179 -74 -179 -154c0 -105 75 -177 187 -177c140 0 187 74 187 179z" />
    <glyph glyph-name="e" unicode="e" horiz-adv-x="939" 
d="M904 254h-624c26 -68 87 -129 187 -129c112 0 150 58 150 58l267 -1c-109 -161 -284 -204 -395 -204c-226 0 -453 113 -453 358c0 217 192 331 418 331c275 0 450 -149 450 -413zM473 538c-110 0 -150 -61 -184 -134h360c-9 57 -64 134 -176 134z" />
    <glyph glyph-name="f" unicode="f" horiz-adv-x="528" 
d="M507 871v-147l-84 -1c-39 0 -55 -17 -55 -42v-39h139v-165h-139v-477h-225v477h-127v165h130l-1 98c0 92 84 131 167 131h195z" />
    <glyph glyph-name="g" unicode="g" horiz-adv-x="931" 
d="M655 592l-2 50h225v-485c0 -276 -222 -342 -465 -342c-179 0 -303 46 -349 52l112 171c59 -20 159 -42 248 -42c166 0 218 49 219 140c-70 -38 -142 -56 -243 -56c-202 0 -364 121 -364 299c0 173 141 288 331 288c93 0 194 -27 288 -75zM280 370c0 -76 71 -122 173 -122
c125 0 202 41 203 127c0 77 -97 118 -207 119c-126 0 -169 -62 -169 -124z" />
    <glyph glyph-name="h" unicode="h" horiz-adv-x="861" 
d="M279 871v-305c55 55 125 101 246 102c97 0 285 -32 285 -218v-450h-218l-2 391c0 71 -63 108 -124 108c-96 0 -187 -54 -187 -171v-328h-226v871h226z" />
    <glyph glyph-name="i" unicode="i" 
d="M53 871h226v-170h-226v170zM53 642h226v-642h-226v642z" />
    <glyph glyph-name="j" unicode="j" 
d="M53 871h226v-170h-226v170zM279 -54v-1c0 -92 -77 -131 -159 -131h-196v147h83c38 0 46 17 46 42v639h226v-696z" />
    <glyph glyph-name="k" unicode="k" horiz-adv-x="861" 
d="M53 871h226v-468l270 239h291l-270 -239l283 -403h-268l-180 255l-126 -108v-147h-226v871z" />
    <glyph glyph-name="l" unicode="l" 
d="M53 871h226v-871h-226v871z" />
    <glyph glyph-name="m" unicode="m" horiz-adv-x="1402" 
d="M811 357v-357h-221v363c0 73 -51 130 -137 131c-112 0 -174 -70 -174 -168v-326h-226v642h226l-3 -67c45 51 148 92 241 93c122 0 231 -48 273 -126c42 59 175 125 267 125c153 0 292 -86 292 -228v-439h-220v361c0 71 -52 130 -137 130c-68 0 -181 -68 -181 -134z" />
    <glyph glyph-name="n" unicode="n" horiz-adv-x="864" 
d="M811 0h-221v375c0 73 -51 130 -137 130c-112 0 -174 -88 -174 -167v-338h-226v642h226l-3 -67c45 51 148 92 241 93c159 0 294 -85 294 -204v-464z" />
    <glyph glyph-name="o" unicode="o" horiz-adv-x="954" 
d="M477 -22c-255 0 -441 125 -441 346c0 217 185 343 441 344c257 0 443 -123 443 -344s-186 -346 -443 -346zM477 521l1 -1c-109 0 -194 -91 -194 -199c0 -109 92 -194 200 -194c109 0 194 91 194 200s-92 194 -201 194z" />
    <glyph glyph-name="p" unicode="p" horiz-adv-x="940" 
d="M53 -182v824h229l-3 -62c47 42 173 87 260 87c213 0 366 -141 366 -361c0 -217 -180 -328 -351 -327c-138 0 -231 53 -275 106v-267h-226zM279 308v-1c0 -89 46 -153 194 -153c117 0 179 75 179 156c0 105 -74 177 -187 177c-140 0 -186 -75 -186 -179z" />
    <glyph glyph-name="q" unicode="q" horiz-adv-x="940" 
d="M887 -182h-225v266c-45 -53 -137 -106 -276 -106c-171 0 -350 111 -350 328c0 220 152 361 366 362c86 0 212 -45 260 -88l-2 62h227v-824zM662 308c0 104 -47 179 -187 179c-112 0 -187 -72 -187 -178c0 -80 62 -155 179 -155c148 0 195 64 195 154z" />
    <glyph glyph-name="r" unicode="r" horiz-adv-x="554" 
d="M526 666v-243c-37 16 -83 29 -122 29c-80 0 -125 -39 -125 -93v-359h-226v642h226l1 -61c38 34 66 55 110 70c32 10 86 17 136 15z" />
    <glyph glyph-name="s" unicode="s" horiz-adv-x="887" 
d="M799 464l-233 1c-15 35 -50 61 -140 61c-50 0 -104 -10 -104 -54c0 -48 75 -50 118 -56l118 -17c76 -10 282 -32 282 -200c0 -163 -174 -221 -383 -220c-236 0 -406 67 -433 212h249c47 -50 106 -65 164 -65c54 0 129 13 129 51c0 49 -64 51 -112 58l-156 23
c-58 8 -244 31 -244 176c0 166 188 233 375 233c141 0 337 -38 370 -203z" />
    <glyph glyph-name="t" unicode="t" horiz-adv-x="535" 
d="M379 878v-236h113v-167h-113l1 -287c0 -36 16 -41 43 -40l59 2v-143c-33 -11 -117 -29 -176 -29c-122 0 -152 75 -152 127v370h-136v167h136v86z" />
    <glyph glyph-name="u" unicode="u" horiz-adv-x="864" 
d="M53 642h226v-371c0 -73 46 -131 131 -131c112 0 175 89 175 169v333h226v-657h-226l1 85c-43 -51 -147 -92 -240 -92c-158 0 -293 86 -293 204v460z" />
    <glyph glyph-name="v" unicode="v" horiz-adv-x="793" 
d="M16 642h234l145 -300l143 300h237l-308 -642h-139z" />
    <glyph glyph-name="w" unicode="w" horiz-adv-x="1236" 
d="M10 642h236l154 -306l140 306h152l150 -300l149 300h231l-301 -642h-150l-155 308l-143 -308h-144z" />
    <glyph glyph-name="x" unicode="x" horiz-adv-x="956" 
d="M10 642h290l174 -168l171 168h276l-312 -307l333 -335h-290l-176 177l-177 -177h-289l322 324z" />
    <glyph glyph-name="y" unicode="y" horiz-adv-x="817" 
d="M5 642h250l143 -300l151 300h251l-329 -654c-63 -124 -123 -174 -240 -174c-47 0 -114 13 -179 47l85 166c34 -24 58 -37 81 -37c43 0 64 49 66 74z" />
    <glyph glyph-name="z" unicode="z" horiz-adv-x="826" 
d="M82 642h678v-125l-361 -358h374v-159h-720v116l367 364h-338v162z" />
    <glyph glyph-name="braceleft" unicode="{" horiz-adv-x="590" 
d="M538 893v-54c-86 -15 -176 -41 -176 -160v-96c0 -177 -54 -198 -241 -240c191 -26 240 -94 240 -202v-114c0 -141 96 -162 177 -178v-51c-146 4 -297 38 -297 228v118c0 109 -49 152 -188 169v63c145 23 188 56 188 205v93c0 165 127 213 297 219z" />
    <glyph glyph-name="bar" unicode="|" horiz-adv-x="201" 
d="M148 -89h-84v981h84v-981z" />
    <glyph glyph-name="braceright" unicode="}" horiz-adv-x="589" 
d="M53 892l1 1c168 -7 295 -55 295 -221v-91c0 -150 43 -183 187 -206v-63c-139 -17 -187 -62 -187 -171v-116c0 -190 -150 -224 -296 -228l-1 51c82 16 177 36 177 178v114c0 108 48 176 240 202c-187 41 -241 62 -241 239v98c0 118 -90 144 -175 159v54z" />
    <glyph glyph-name="asciitilde" unicode="~" horiz-adv-x="580" 
d="M402 925h125v-25c0 -87 -22 -175 -102 -175c-25 0 -55 9 -86 21l-68 25c-18 7 -37 9 -54 10c-33 0 -37 -34 -46 -50h-116c-1 8 -1 18 -1 29c0 97 49 164 113 164c30 0 61 -13 92 -26l55 -24c18 -8 32 -14 48 -15c28 0 29 32 40 66z" />
    <glyph glyph-name="Adieresis" unicode="&#xc4;" horiz-adv-x="1087" 
d="M662 336l-127 300l-125 -300h252zM341 173l-71 -173h-255l364 871h322l366 -871h-265l-72 173h-389zM341 1115h164v-174h-164v174zM567 1115h164v-174h-164v174z" />
    <glyph glyph-name="Aring" unicode="&#xc5;" horiz-adv-x="1087" 
d="M662 336l-127 300l-125 -300h252zM341 173l-71 -173h-255l364 871h322l366 -871h-265l-72 173h-389zM540 1096c56 0 103 -47 103 -104c1 -57 -46 -103 -102 -103c-58 0 -104 46 -104 102c0 58 46 105 103 105zM539 1049c-31 0 -57 -25 -57 -58c0 -31 26 -55 58 -55
c31 -1 56 23 56 55c0 33 -25 58 -57 58z" />
    <glyph glyph-name="Ccedilla" unicode="&#xc7;" horiz-adv-x="1129" 
d="M391 0h1c-232 52 -356 204 -356 422c0 333 239 470 543 470c260 0 444 -112 500 -271h-303c-52 73 -147 103 -216 103c-134 0 -239 -102 -240 -286c0 -204 134 -276 253 -276c148 0 213 92 235 164h287c-26 -182 -186 -346 -512 -345c-32 0 -62 1 -92 3l-10 -48
c40 11 65 15 105 15c111 0 160 -60 160 -119s-36 -123 -189 -123c-155 0 -217 51 -206 114h98c10 -36 36 -57 99 -57c57 0 93 32 93 69s-43 58 -89 58c-30 0 -65 -15 -77 -31h-121z" />
    <glyph glyph-name="Eacute" unicode="&#xc9;" horiz-adv-x="986" 
d="M53 871h881v-187h-632v-131h522v-185h-522v-186h632v-182h-881v871zM692 1139l-197 -198h-129l124 198h202z" />
    <glyph glyph-name="Ntilde" unicode="&#xd1;" horiz-adv-x="1098" 
d="M53 871h279l467 -585v585h246v-871h-290l-453 568v-568h-249v871zM654 1141h125c1 -10 0 -13 1 -25c0 -87 -21 -175 -101 -175c-25 0 -55 9 -87 21l-68 27c-19 7 -37 8 -53 8c-34 0 -37 -34 -48 -49l-114 -1c-1 8 -1 18 -2 29c0 97 48 164 114 164c29 0 60 -12 91 -26
l55 -24c18 -8 32 -14 47 -14c28 0 29 30 40 65z" />
    <glyph glyph-name="Odieresis" unicode="&#xd6;" horiz-adv-x="1188" 
d="M1153 436h1c0 -270 -221 -458 -559 -458c-332 0 -559 188 -559 458c0 276 227 456 558 456c338 0 559 -187 559 -456zM591 718c-172 0 -275 -105 -274 -282c0 -163 91 -284 274 -284c175 0 276 147 276 284c0 165 -113 282 -276 282zM396 1137h164v-174h-164v174z
M622 1137h164v-174h-164v174z" />
    <glyph glyph-name="Udieresis" unicode="&#xdc;" horiz-adv-x="1092" 
d="M53 871h249v-486c0 -139 20 -227 249 -228c228 0 242 95 242 228v486h247v-464c0 -257 -84 -432 -507 -432c-362 0 -480 152 -480 401v495zM355 1116h165v-174h-165v174zM581 1116h165v-174h-165v174z" />
    <glyph glyph-name="aacute" unicode="&#xe1;" horiz-adv-x="922" 
d="M889 173v-173h-181c-52 0 -95 18 -102 83c-98 -66 -210 -105 -316 -105c-118 0 -254 64 -254 201c0 159 180 225 377 225c72 0 186 -2 185 -2c11 55 -6 114 -124 114c-120 0 -252 -28 -300 -41l-93 119c59 33 226 73 390 73c200 0 345 -41 345 -188v-257
c0 -27 12 -51 49 -51c12 0 24 2 24 2zM267 185h1c0 -35 42 -63 83 -64c68 0 202 34 247 142c-42 18 -80 25 -133 25c-80 0 -198 -34 -198 -103zM712 948l-197 -198h-129l124 198h202z" />
    <glyph glyph-name="agrave" unicode="&#xe0;" horiz-adv-x="922" 
d="M889 173v-173h-181c-52 0 -95 18 -102 83c-98 -66 -210 -105 -316 -105c-118 0 -254 64 -254 201c0 159 180 225 377 225c72 0 186 -2 185 -2c11 55 -6 114 -124 114c-120 0 -252 -28 -300 -41l-93 119c59 33 226 73 390 73c200 0 345 -41 345 -188v-257
c0 -27 12 -51 49 -51c12 0 24 2 24 2zM267 185h1c0 -35 42 -63 83 -64c68 0 202 34 247 142c-42 18 -80 25 -133 25c-80 0 -198 -34 -198 -103zM250 948h202l124 -198h-128z" />
    <glyph glyph-name="acircumflex" unicode="&#xe2;" horiz-adv-x="922" 
d="M889 173v-173h-181c-52 0 -95 18 -102 83c-98 -66 -210 -105 -316 -105c-118 0 -254 64 -254 201c0 159 180 225 377 225c72 0 186 -2 185 -2c11 55 -6 114 -124 114c-120 0 -252 -28 -300 -41l-93 119c59 33 226 73 390 73c200 0 345 -41 345 -188v-257
c0 -27 12 -51 49 -51c12 0 24 2 24 2zM267 185h1c0 -35 42 -63 83 -64c68 0 202 34 247 142c-42 18 -80 25 -133 25c-80 0 -198 -34 -198 -103zM350 946h246l141 -196h-157l-112 110l-109 -110h-151z" />
    <glyph glyph-name="adieresis" unicode="&#xe4;" horiz-adv-x="922" 
d="M889 173v-173h-181c-52 0 -95 18 -102 83c-98 -66 -210 -105 -316 -105c-118 0 -254 64 -254 201c0 159 180 225 377 225c72 0 186 -2 185 -2c11 55 -6 114 -124 114c-120 0 -252 -28 -300 -41l-93 119c59 33 226 73 390 73c200 0 345 -41 345 -188v-257
c0 -27 12 -51 49 -51c12 0 24 2 24 2zM267 185h1c0 -35 42 -63 83 -64c68 0 202 34 247 142c-42 18 -80 25 -133 25c-80 0 -198 -34 -198 -103zM280 924h164v-174h-164v174zM505 924h164v-174h-164v174z" />
    <glyph glyph-name="atilde" unicode="&#xe3;" horiz-adv-x="922" 
d="M889 173v-173h-181c-52 0 -95 18 -102 83c-98 -66 -210 -105 -316 -105c-118 0 -254 64 -254 201c0 159 180 225 377 225c72 0 186 -2 185 -2c11 55 -6 114 -124 114c-120 0 -252 -28 -300 -41l-93 119c59 33 226 73 390 73c200 0 345 -41 345 -188v-257
c0 -27 12 -51 49 -51c12 0 24 2 24 2zM267 185h1c0 -35 42 -63 83 -64c68 0 202 34 247 142c-42 18 -80 25 -133 25c-80 0 -198 -34 -198 -103zM562 950h126c1 -10 0 -13 0 -25c0 -87 -22 -175 -102 -175c-25 0 -55 9 -86 21l-69 26c-19 7 -37 8 -53 9
c-34 0 -37 -34 -48 -50h-114c-1 8 -1 18 -1 29c0 97 48 164 113 164c29 0 61 -13 91 -26l55 -24c18 -8 32 -14 48 -14c28 0 30 30 40 65z" />
    <glyph glyph-name="aring" unicode="&#xe5;" horiz-adv-x="922" 
d="M889 173v-173h-181c-52 0 -95 18 -102 83c-98 -66 -210 -105 -316 -105c-118 0 -254 64 -254 201c0 159 180 225 377 225c72 0 186 -2 185 -2c11 55 -6 114 -124 114c-120 0 -252 -28 -300 -41l-94 119c59 33 226 73 391 73c200 0 345 -41 345 -188v-257
c0 -27 12 -51 49 -51c12 0 24 2 24 2zM267 185h1c0 -35 42 -63 83 -64c68 0 202 34 247 142c-42 18 -80 25 -133 25c-80 0 -198 -34 -198 -103zM443 922c57 0 104 -47 104 -104s-47 -103 -103 -103c-58 0 -104 46 -104 102c0 58 46 105 103 105zM443 875v1
c-32 0 -58 -25 -58 -58c0 -32 26 -56 58 -56c31 -1 56 23 56 55c1 33 -24 58 -56 58z" />
    <glyph glyph-name="ccedilla" unicode="&#xe7;" horiz-adv-x="927" 
d="M359 -12c-197 36 -323 160 -323 330c0 223 179 349 444 349c246 0 375 -112 403 -247h-249c-38 79 -87 106 -169 106c-84 0 -183 -67 -183 -216c0 -120 91 -192 189 -191c55 0 140 27 176 123h245c-42 -165 -163 -264 -418 -264c-11 0 -22 0 -32 2l-8 -35
c32 9 53 13 86 13c91 0 130 -51 130 -99s-29 -100 -153 -100c-128 0 -179 41 -169 92l80 -1c7 -28 29 -45 82 -44c45 0 75 26 75 58c0 29 -36 45 -73 45c-25 0 -53 -12 -63 -26h-99z" />
    <glyph glyph-name="eacute" unicode="&#xe9;" horiz-adv-x="939" 
d="M904 254h-624c26 -68 87 -129 187 -129c112 0 150 58 150 58l267 -1c-109 -161 -284 -204 -395 -204c-226 0 -453 113 -453 358c0 217 192 331 418 331c275 0 450 -149 450 -413zM473 538c-110 0 -150 -61 -184 -134h360c-9 57 -64 134 -176 134zM710 948l-197 -198h-129
l124 198h202z" />
    <glyph glyph-name="egrave" unicode="&#xe8;" horiz-adv-x="939" 
d="M904 254h-624c26 -68 87 -129 187 -129c112 0 150 58 150 58l267 -1c-109 -161 -284 -204 -395 -204c-226 0 -453 113 -453 358c0 217 192 331 418 331c275 0 450 -149 450 -413zM473 538c-110 0 -150 -61 -184 -134h360c-9 57 -64 134 -176 134zM218 948h203l124 -198
h-129z" />
    <glyph glyph-name="ecircumflex" unicode="&#xea;" horiz-adv-x="939" 
d="M904 254h-624c26 -68 87 -129 187 -129c112 0 150 58 150 58l267 -1c-109 -161 -284 -204 -395 -204c-226 0 -453 113 -453 358c0 217 192 331 418 331c275 0 450 -149 450 -413zM473 538c-110 0 -150 -61 -184 -134h360c-9 57 -64 134 -176 134zM342 946h246l142 -196
h-157l-111 110l-110 -110h-151z" />
    <glyph glyph-name="edieresis" unicode="&#xeb;" horiz-adv-x="939" 
d="M904 254h-624c26 -68 87 -129 187 -129c112 0 150 58 150 58l267 -1c-109 -161 -284 -204 -395 -204c-226 0 -453 113 -453 358c0 217 192 331 418 331c275 0 450 -149 450 -413zM473 538c-110 0 -150 -61 -184 -134h360c-9 57 -64 134 -176 134zM266 924h164v-174h-164
v174zM491 924h164v-174h-164v174z" />
    <glyph glyph-name="iacute" unicode="&#xed;" 
d="M53 642h226v-642h-226v642zM416 923l-198 -198h-128l124 198h202z" />
    <glyph glyph-name="igrave" unicode="&#xec;" 
d="M53 642h226v-642h-226v642zM-77 923h202l124 -198h-128z" />
    <glyph glyph-name="icircumflex" unicode="&#xee;" 
d="M53 642h226v-642h-226v642zM46 921h245l143 -196h-158l-111 110l-110 -110h-151z" />
    <glyph glyph-name="idieresis" unicode="&#xef;" 
d="M53 642h226v-642h-226v642zM-24 899h164v-174h-164v174zM202 899h164v-174h-164v174z" />
    <glyph glyph-name="ntilde" unicode="&#xf1;" horiz-adv-x="864" 
d="M811 0h-221v375c0 73 -51 130 -137 130c-112 0 -174 -88 -174 -167v-338h-226v642h226l-3 -67c45 51 148 92 241 93c159 0 294 -85 294 -204v-464zM578 950h125c1 -10 0 -13 0 -25c0 -87 -22 -175 -102 -175c-25 0 -55 9 -86 21l-68 26c-19 7 -37 8 -53 9
c-33 0 -37 -34 -48 -50h-115c-1 8 -1 18 -1 29c0 97 49 164 113 164c29 0 61 -13 92 -26l55 -24c18 -8 32 -14 48 -14c28 0 29 30 40 65z" />
    <glyph glyph-name="oacute" unicode="&#xf3;" horiz-adv-x="954" 
d="M477 -22c-255 0 -441 125 -441 346c0 217 185 343 441 344c257 0 443 -123 443 -344s-186 -346 -443 -346zM477 521l1 -1c-109 0 -194 -91 -194 -199c0 -109 92 -194 200 -194c109 0 194 91 194 200s-92 194 -201 194zM723 947l-197 -198h-129l124 198h202z" />
    <glyph glyph-name="ograve" unicode="&#xf2;" horiz-adv-x="954" 
d="M477 -22c-255 0 -441 125 -441 346c0 217 185 343 441 344c257 0 443 -123 443 -344s-186 -346 -443 -346zM477 521l1 -1c-109 0 -194 -91 -194 -199c0 -109 92 -194 200 -194c109 0 194 91 194 200s-92 194 -201 194zM237 947h202l124 -198h-128z" />
    <glyph glyph-name="ocircumflex" unicode="&#xf4;" horiz-adv-x="954" 
d="M477 -22c-255 0 -441 125 -441 346c0 217 185 343 441 344c257 0 443 -123 443 -344s-186 -346 -443 -346zM477 521l1 -1c-109 0 -194 -91 -194 -199c0 -109 92 -194 200 -194c109 0 194 91 194 200s-92 194 -201 194zM360 945h246l142 -196h-158l-111 110l-110 -110
h-151z" />
    <glyph glyph-name="odieresis" unicode="&#xf6;" horiz-adv-x="954" 
d="M477 -22c-255 0 -441 125 -441 346c0 217 185 343 441 344c257 0 443 -123 443 -344s-186 -346 -443 -346zM477 521l1 -1c-109 0 -194 -91 -194 -199c0 -109 92 -194 200 -194c109 0 194 91 194 200s-92 194 -201 194zM285 923h164v-174h-164v174zM510 923h165v-174h-165
v174z" />
    <glyph glyph-name="otilde" unicode="&#xf5;" horiz-adv-x="954" 
d="M477 -22c-255 0 -441 125 -441 346c0 217 185 343 441 344c257 0 443 -123 443 -344s-186 -346 -443 -346zM477 521l1 -1c-109 0 -194 -91 -194 -199c0 -109 92 -194 200 -194c109 0 194 91 194 200s-92 194 -201 194zM585 949h125c1 -10 0 -13 0 -25
c0 -87 -21 -175 -101 -175c-25 0 -55 8 -87 21l-69 25c-18 7 -36 9 -53 10c-33 0 -36 -34 -47 -50h-115c-1 8 -1 18 -1 29c0 97 49 164 114 164c29 0 60 -13 90 -26l55 -24c19 -8 33 -14 49 -14c28 0 29 30 40 65z" />
    <glyph glyph-name="uacute" unicode="&#xfa;" horiz-adv-x="864" 
d="M53 642h226v-371c0 -73 46 -131 131 -131c112 0 175 89 175 169v333h226v-657h-226l1 85c-43 -51 -147 -92 -240 -92c-158 0 -293 86 -293 204v460zM690 923l-198 -198h-128l124 198h202z" />
    <glyph glyph-name="ugrave" unicode="&#xf9;" horiz-adv-x="864" 
d="M53 642h226v-371c0 -73 46 -131 131 -131c112 0 175 89 175 169v333h226v-657h-226l1 85c-43 -51 -147 -92 -240 -92c-158 0 -293 86 -293 204v460zM182 923h202l124 -198h-129z" />
    <glyph glyph-name="ucircumflex" unicode="&#xfb;" horiz-adv-x="864" 
d="M53 642h226v-371c0 -73 46 -131 131 -131c112 0 175 89 175 169v333h226v-657h-226l1 85c-43 -51 -147 -92 -240 -92c-158 0 -293 86 -293 204v460zM309 921h245l142 -196h-157l-112 110l-110 -110h-151z" />
    <glyph glyph-name="udieresis" unicode="&#xfc;" horiz-adv-x="864" 
d="M53 642h226v-371c0 -73 46 -131 131 -131c112 0 175 89 175 169v333h226v-657h-226l1 85c-43 -51 -147 -92 -240 -92c-158 0 -293 86 -293 204v460zM232 899h164v-174h-164v174zM458 899h164v-174h-164v174z" />
    <glyph glyph-name="cent" unicode="&#xa2;" horiz-adv-x="927" 
d="M517 789v1c222 -11 339 -119 366 -248l-249 1c-38 79 -87 106 -169 105c-84 0 -183 -67 -183 -215c0 -120 91 -192 189 -192c55 0 140 27 176 124l245 1c-40 -157 -149 -253 -375 -263v-125h-113l1 127c-223 22 -369 154 -370 337c0 199 145 322 369 345v92h113v-90z" />
    <glyph glyph-name="sterling" unicode="&#xa3;" horiz-adv-x="1061" 
d="M973 629l-280 1c-13 80 -67 134 -225 134c-95 0 -140 -35 -140 -73c0 -52 90 -89 136 -112c22 -11 69 -37 115 -92h201v-112h-175c-5 -37 -25 -79 -54 -107c35 -20 70 -40 105 -39c22 0 39 -9 72 64h299c-33 -154 -134 -302 -294 -301c-118 0 -188 118 -276 118
c-61 0 -107 -48 -131 -110h-282c12 123 35 170 73 207c52 48 123 76 195 92c13 15 20 49 11 76h-247v113h111c-90 42 -151 113 -151 174c0 166 178 287 441 287c276 0 476 -136 496 -320z" />
    <glyph glyph-name="bullet" unicode="&#x2022;" horiz-adv-x="338" 
d="M53 524h231v-188h-231v188z" />
    <glyph glyph-name="germandbls" unicode="&#xdf;" horiz-adv-x="986" 
d="M815 499c74 -28 135 -128 135 -204c0 -222 -278 -295 -420 -295h-202v162c26 -5 63 -10 108 -10c120 0 235 48 235 132c0 89 -132 94 -172 94h-173v174l153 1c47 0 161 17 162 106c0 45 -32 91 -139 91c-147 0 -209 -47 -209 -175v-575h-240l1 499c0 210 129 393 511 393
c197 0 342 -75 344 -223c1 -60 -31 -137 -94 -170z" />
    <glyph glyph-name="registered" unicode="&#xae;" horiz-adv-x="635" 
d="M53 680c0 117 96 212 212 213c117 0 210 -95 210 -212c0 -115 -93 -211 -211 -212c-115 0 -211 96 -211 211zM188 563v241h75c60 0 86 -27 86 -76c0 -30 -22 -56 -53 -62l67 -103h-56l-70 109v-109h-49zM237 692l19 1c28 0 42 15 42 36c0 22 -14 35 -40 35h-21v-72z
M264 856c-97 0 -172 -78 -172 -175c0 -96 75 -174 172 -174s173 78 173 173c0 98 -76 176 -173 176z" />
    <glyph glyph-name="copyright" unicode="&#xa9;" horiz-adv-x="635" 
d="M53 680c0 117 96 212 212 213c117 0 210 -95 210 -212c0 -115 -93 -211 -211 -212c-115 0 -211 96 -211 211zM354 778l-25 -37c-15 11 -33 18 -49 18c-45 0 -79 -34 -79 -79c0 -43 34 -81 79 -82c18 0 34 7 49 22l25 -39c-24 -18 -50 -27 -75 -27c-76 0 -128 45 -128 126
c0 73 52 124 129 125c25 0 54 -9 74 -27zM264 856c-97 0 -172 -78 -172 -175c0 -96 75 -174 172 -174s173 78 173 173c0 98 -76 176 -173 176z" />
    <glyph glyph-name="trademark" unicode="&#x2122;" horiz-adv-x="1351" 
d="M53 892h468v-95h-171v-340h-125v340h-172v95zM789 892l103 -250l103 250h197v-435h-124v331l-135 -331h-79l-138 335v-335h-124v435h197z" />
    <glyph glyph-name="acute" unicode="&#xb4;" horiz-adv-x="435" 
d="M379 923l-197 -198h-129l124 198h202z" />
    <glyph glyph-name="dieresis" unicode="&#xa8;" horiz-adv-x="502" 
d="M53 899h164v-174h-164v174zM279 899h164v-174h-164v174z" />
    <glyph glyph-name="AE" unicode="&#xc6;" horiz-adv-x="1635" 
d="M702 328v359h-132l-152 -359h284zM1581 871v-187h-630v-131h521v-185h-521v-186h630v-182h-879v175h-347l-76 -175h-266l389 871h1179z" />
    <glyph glyph-name="Oslash" unicode="&#xd8;" horiz-adv-x="1188" 
d="M818 602l-347 -428c34 -14 74 -22 119 -22c175 0 276 147 276 283c0 64 -16 121 -48 167zM363 260l351 432c-36 16 -77 26 -124 26c-172 0 -275 -105 -275 -282c0 -68 15 -128 48 -176zM220 84l-1 -1c-115 82 -183 205 -183 353c0 276 227 456 559 456
c92 0 176 -14 248 -40l73 90h181l-127 -153c116 -82 183 -204 184 -353c0 -270 -221 -458 -560 -458c-92 0 -176 14 -249 42l-77 -94h-176z" />
    <glyph glyph-name="infinity" unicode="&#x221e;" horiz-adv-x="817" 
d="M5 642h250l143 -300l151 300h251l-329 -654c-63 -124 -123 -174 -240 -174c-47 0 -114 13 -179 47l85 166c34 -24 58 -37 81 -37c43 0 64 49 66 74zM654 923l-196 -198h-130l124 198h202z" />
    <glyph glyph-name="ae" unicode="&#xe6;" horiz-adv-x="1522" 
d="M1055 538c-110 0 -150 -61 -183 -134h359c-9 57 -64 134 -176 134zM267 185h1c0 -35 42 -63 83 -64c68 0 202 34 247 142c-42 18 -80 25 -133 25c-80 0 -198 -34 -198 -103zM678 146v-1c-74 -55 -123 -167 -387 -167c-118 0 -254 64 -254 201c0 159 180 225 377 225
c72 0 186 -2 185 -2c11 55 -6 114 -124 114c-120 0 -252 -28 -300 -41l-93 119c59 33 226 73 391 73c129 0 234 -17 293 -69c75 45 170 69 272 69c275 0 449 -149 449 -413h-624c26 -68 88 -129 188 -129c111 0 150 58 150 58l267 -1c-109 -161 -284 -204 -395 -203
c-157 0 -330 67 -395 167z" />
    <glyph glyph-name="oslash" unicode="&#xf8;" horiz-adv-x="954" 
d="M662 403l-257 -259c25 -10 52 -17 79 -17c109 0 194 91 195 200c0 27 -7 53 -17 76zM321 209c0 0 274 277 274 276c-34 23 -75 36 -117 35c-109 0 -194 -91 -194 -200c0 -41 14 -80 37 -111zM173 60c-86 59 -137 148 -137 264c0 217 185 343 440 343
c95 0 180 -16 250 -48l50 49h149l-107 -108c64 -58 102 -137 102 -236c0 -221 -186 -346 -443 -346c-75 0 -143 11 -204 33l-46 -47h-149z" />
    <glyph glyph-name="radical" unicode="&#x221a;" horiz-adv-x="636" 
d="M436 725h-246l-141 196h156l111 -110l110 110h152z" />
    <glyph glyph-name="nbspace" unicode="&#xa0;" horiz-adv-x="254" 
 />
    <glyph glyph-name="Agrave" unicode="&#xc0;" horiz-adv-x="1087" 
d="M662 336l-127 300l-125 -300h252zM341 173l-71 -173h-255l364 871h322l366 -871h-265l-72 173h-389zM287 1139h202l124 -198h-128z" />
    <glyph glyph-name="Atilde" unicode="&#xc3;" horiz-adv-x="1087" 
d="M662 336l-127 300l-125 -300h252zM341 173l-71 -173h-255l364 871h322l366 -871h-265l-72 173h-389zM652 1141h125c1 -10 0 -13 0 -25c0 -87 -21 -175 -101 -174c-25 0 -55 8 -87 20l-68 26c-18 7 -36 9 -53 9c-33 0 -36 -34 -47 -49l-115 -1c-2 8 -2 18 -2 29
c0 97 49 164 114 164c29 0 60 -13 91 -26l55 -24c19 -8 33 -14 48 -14c28 0 29 30 40 65z" />
    <glyph glyph-name="Otilde" unicode="&#xd5;" horiz-adv-x="1188" 
d="M1153 436h1c0 -270 -221 -458 -559 -458c-332 0 -559 188 -559 458c0 276 227 456 558 456c338 0 559 -187 559 -456zM591 718c-172 0 -275 -105 -274 -282c0 -163 91 -284 274 -284c175 0 276 147 276 284c0 165 -113 282 -276 282zM709 1163h125c1 -10 0 -13 0 -25
c0 -88 -21 -175 -102 -175c-25 0 -55 7 -86 20l-69 25c-19 7 -36 10 -52 11c-34 0 -37 -35 -48 -51h-114c-1 9 -1 19 -1 29c0 98 48 164 113 164c29 0 60 -11 91 -25l54 -24c19 -8 33 -14 49 -14c28 0 29 30 40 65z" />
    <glyph glyph-name="OE" unicode="&#x152;" horiz-adv-x="1573" 
d="M590 718c-172 0 -275 -105 -274 -282c0 -163 91 -284 274 -284c175 0 276 147 276 284c0 165 -113 282 -276 282zM910 824v47h611v-187h-362v-131h361v-185h-361v-186h362v-182h-611v46c-86 -43 -194 -68 -315 -68c-332 0 -559 188 -559 458c0 276 227 456 558 456
c122 0 230 -25 316 -68z" />
    <glyph glyph-name="oe" unicode="&#x153;" horiz-adv-x="1581" 
d="M477 521l1 -1c-109 0 -194 -91 -194 -199c0 -109 92 -194 200 -194c109 0 194 91 194 200s-92 194 -201 194zM1116 537c-110 0 -150 -61 -182 -134h358c-9 57 -64 134 -176 134zM797 577h-1c77 59 185 89 303 89c274 0 449 -149 449 -413h-624c26 -68 87 -129 188 -129
c111 0 150 58 150 58l265 -1c-109 -161 -284 -204 -395 -204c-118 0 -239 33 -327 99c-78 -64 -193 -99 -327 -99c-255 0 -441 125 -441 346c0 217 185 343 441 343c129 0 240 -30 319 -89z" />
    <glyph glyph-name="endash" unicode="&#x2013;" horiz-adv-x="1098" 
d="M53 396h992v-166h-992v166z" />
    <glyph glyph-name="emdash" unicode="&#x2014;" horiz-adv-x="1308" 
d="M53 396h1201v-166h-1201v166z" />
    <glyph glyph-name="quotedblleft" unicode="&#x201c;" horiz-adv-x="624" 
d="M570 515h-222v125c0 96 2 183 128 251l71 -86c-35 -27 -55 -57 -56 -99h79v-191zM275 515h-222v125c0 96 2 183 129 251l71 -86c-36 -27 -54 -57 -55 -99h77v-191z" />
    <glyph glyph-name="quotedblright" unicode="&#x201d;" horiz-adv-x="624" 
d="M53 893h222v-124c0 -97 -2 -183 -128 -252l-72 85c35 27 55 59 57 100h-79v191zM348 893h222l-1 -124c0 -97 -2 -183 -129 -252l-70 85c36 27 54 59 55 100h-77v191z" />
    <glyph glyph-name="quoteleft" unicode="&#x2018;" horiz-adv-x="328" 
d="M275 520h-222v124c0 97 2 183 129 252l71 -85c-36 -27 -54 -59 -55 -100h77v-191z" />
    <glyph glyph-name="quoteright" unicode="&#x2019;" horiz-adv-x="328" 
d="M53 892h222v-125c0 -96 -2 -182 -128 -251l-72 85c35 27 55 59 57 100h-79v191z" />
    <glyph glyph-name="ydieresis" unicode="&#xff;" horiz-adv-x="817" 
d="M5 642h250l143 -300l151 300h251l-329 -654c-63 -124 -123 -174 -240 -174c-47 0 -114 13 -179 47l85 166c34 -24 58 -37 81 -37c43 0 64 49 66 74zM208 899h164v-174h-164v174zM434 899h164v-174h-164v174z" />
    <glyph glyph-name="Ydieresis" unicode="&#x178;" horiz-adv-x="1110" 
d="M11 871h271l281 -419l279 419h259l-418 -624v-247h-249v245zM820 1139l-197 -198h-130l124 198h203z" />
    <glyph glyph-name="fraction" unicode="&#x2044;" horiz-adv-x="1110" 
d="M11 871h271l281 -419l279 419h259l-418 -624v-247h-249v245zM361 1115h164v-174h-164v174zM586 1115h164v-174h-164v174z" />
    <glyph glyph-name="periodcentered" unicode="&#xb7;" horiz-adv-x="485" 
d="M183 13l-16 -77c40 11 65 15 105 15c111 0 160 -60 160 -119s-36 -123 -188 -123c-157 0 -218 51 -207 114h98c10 -36 36 -57 100 -57c55 0 92 32 92 69s-43 58 -90 58c-29 0 -64 -15 -76 -31h-121l40 151h103z" />
    <glyph glyph-name="Acircumflex" unicode="&#xc2;" horiz-adv-x="1087" 
d="M662 336l-127 300l-125 -300h252zM341 173l-71 -173h-255l364 871h322l366 -871h-265l-72 173h-389zM435 1137h245l143 -196h-158l-111 110l-109 -110h-152z" />
    <glyph glyph-name="Ecircumflex" unicode="&#xca;" horiz-adv-x="986" 
d="M53 871h881v-187h-632v-131h522v-185h-522v-186h632v-182h-881v871zM371 1137h245l143 -196h-158l-111 110l-110 -110h-151z" />
    <glyph glyph-name="Aacute" unicode="&#xc1;" horiz-adv-x="1087" 
d="M662 336l-127 300l-125 -300h252zM341 173l-71 -173h-255l364 871h322l366 -871h-265l-72 173h-389zM797 1139l-198 -198h-128l124 198h202z" />
    <glyph glyph-name="Edieresis" unicode="&#xcb;" horiz-adv-x="986" 
d="M53 871h881v-187h-632v-131h522v-185h-522v-186h632v-182h-881v871zM307 1115h164v-174h-164v174zM532 1115h164v-174h-164v174z" />
    <glyph glyph-name="Egrave" unicode="&#xc8;" horiz-adv-x="986" 
d="M53 871h881v-187h-632v-131h522v-185h-522v-186h632v-182h-881v871zM301 1139h202l124 -198h-128z" />
    <glyph glyph-name="Iacute" unicode="&#xcd;" horiz-adv-x="355" 
d="M53 871h249v-871h-249v871zM429 1139l-197 -198h-129l124 198h202z" />
    <glyph glyph-name="Icircumflex" unicode="&#xce;" horiz-adv-x="355" 
d="M53 871h249v-871h-249v871zM58 1137h245l143 -196h-158l-111 110l-110 -110h-151z" />
    <glyph glyph-name="Idieresis" unicode="&#xcf;" horiz-adv-x="355" 
d="M53 871h249v-871h-249v871zM-17 1115h164v-174h-164v174zM208 1115h164v-174h-164v174z" />
    <glyph glyph-name="Igrave" unicode="&#xcc;" horiz-adv-x="355" 
d="M53 871h249v-871h-249v871zM-72 1139h202l124 -198h-129z" />
    <glyph glyph-name="Oacute" unicode="&#xd3;" horiz-adv-x="1188" 
d="M1153 436h1c0 -270 -221 -458 -559 -458c-332 0 -559 188 -559 458c0 276 227 456 558 456c338 0 559 -187 559 -456zM591 718c-172 0 -275 -105 -274 -282c0 -163 91 -284 274 -284c175 0 276 147 276 284c0 165 -113 282 -276 282zM824 1161l-198 -197h-128l124 197
h202z" />
    <glyph glyph-name="Ocircumflex" unicode="&#xd4;" horiz-adv-x="1188" 
d="M1153 436h1c0 -270 -221 -458 -559 -458c-332 0 -559 188 -559 458c0 276 227 456 558 456c338 0 559 -187 559 -456zM591 718c-172 0 -275 -105 -274 -282c0 -163 91 -284 274 -284c175 0 276 147 276 284c0 165 -113 282 -276 282zM475 1159h246l141 -195h-157
l-111 110l-109 -110h-152z" />
    <glyph glyph-name="Ograve" unicode="&#xd2;" horiz-adv-x="1188" 
d="M1153 436h1c0 -270 -221 -458 -559 -458c-332 0 -559 188 -559 458c0 276 227 456 558 456c338 0 559 -187 559 -456zM591 718c-172 0 -275 -105 -274 -282c0 -163 91 -284 274 -284c175 0 276 147 276 284c0 165 -113 282 -276 282zM355 1160h202l124 -197h-128z" />
    <glyph glyph-name="Uacute" unicode="&#xda;" horiz-adv-x="1092" 
d="M53 871h249v-486c0 -139 20 -227 249 -228c228 0 242 95 242 228v486h247v-464c0 -257 -84 -432 -507 -432c-362 0 -480 152 -480 401v495zM796 1139l-198 -198h-128l123 198h203z" />
    <glyph glyph-name="Ucircumflex" unicode="&#xdb;" horiz-adv-x="1092" 
d="M53 871h249v-486c0 -139 20 -227 249 -228c228 0 242 95 242 228v486h247v-464c0 -257 -84 -432 -507 -432c-362 0 -480 152 -480 401v495zM430 1138h246l141 -196h-156l-112 110l-110 -110h-151z" />
    <glyph glyph-name="Ugrave" unicode="&#xd9;" horiz-adv-x="1092" 
d="M53 871h249v-486c0 -139 20 -227 249 -228c228 0 242 95 242 228v486h247v-464c0 -257 -84 -432 -507 -432c-362 0 -480 152 -480 401v495zM313 1139h202l124 -198h-128z" />
    <glyph glyph-name="dotlessi" unicode="&#x131;" 
d="M53 642h226v-642h-226v642z" />
    <glyph glyph-name="circumflex" unicode="&#x2c6;" horiz-adv-x="633" 
d="M195 1137h245l143 -196h-158l-111 110l-110 -110h-151z" />
    <glyph glyph-name="tilde" unicode="&#x2dc;" horiz-adv-x="580" 
d="M400 1141h126c1 -10 0 -13 0 -25c0 -87 -22 -175 -102 -175c-25 0 -55 9 -86 21l-68 27c-19 7 -37 8 -54 8c-34 0 -37 -34 -48 -49l-114 -1c-1 8 -1 18 -1 29c0 97 48 164 113 164c29 0 61 -13 92 -26l55 -24c18 -8 32 -14 48 -14c28 0 29 30 39 65z" />
    <glyph glyph-name="ring" unicode="&#x2da;" horiz-adv-x="1087" 
d="M540 1096h1c56 0 103 -47 102 -105c0 -56 -47 -102 -103 -102c-57 0 -103 46 -103 103s46 104 103 104zM540 1049h1c-32 0 -58 -25 -58 -58c0 -32 26 -56 57 -55c32 0 57 24 57 55c0 33 -25 58 -57 58z" />
    <glyph glyph-name="space" unicode=" " horiz-adv-x="254" 
 />
  </font>
</defs>
</svg>
