<?xml version="1.0" encoding="utf-8"?>
<!-- Generator: Adobe Illustrator 27.2.0, SVG Export Plug-In . SVG Version: 6.00 Build 0)  -->
<svg version="1.1" id="Layer_1" xmlns="http://www.w3.org/2000/svg" xmlns:xlink="http://www.w3.org/1999/xlink" x="0px" y="0px"
	 viewBox="0 0 547.63 28.62" style="enable-background:new 0 0 547.63 28.62;" xml:space="preserve">
<style type="text/css">
	.st0{fill:#FFFFFF;}
</style>
<g>
	<g>
		<path class="st0" d="M9.69,19.16v9.46H0V0.25h23.2c9.62,0,14.42,3.08,14.42,9.23v0.38c0,6.2-4.81,9.3-14.42,9.3H9.69z M9.69,12.79
			h13.34c2.99,0,4.49-0.99,4.49-2.97V9.71c0-2.01-1.5-3.01-4.49-3.01H9.69V12.79z"/>
		<path class="st0" d="M79.27,28.56h-9.51l-2.65-5.13H46.9l-2.65,5.13h-9.51L49.81,0.51H64.2L79.27,28.56z M63.85,17.1L58.51,6.8
			h-3.02l-5.34,10.3H63.85z"/>
		<path class="st0" d="M92.45,0.25l19.75,17.85V0.25h9.56v28.37h-9.56L91.2,9.82v18.8h-9.56V0.25H92.45z"/>
		<path class="st0" d="M147.18,0.15c2.89,0,5.5,0.18,7.83,0.54c2.33,0.36,4.28,0.87,5.83,1.55c1.56,0.67,2.89,1.43,4,2.25
			s1.96,1.76,2.54,2.81c0.58,1.04,1.01,2.07,1.27,3.08s0.4,2.08,0.4,3.23v1.15c0,1.35-0.17,2.62-0.5,3.8
			c-0.33,1.19-0.99,2.41-1.98,3.69c-0.99,1.27-2.26,2.36-3.81,3.25c-1.56,0.89-3.67,1.63-6.33,2.22s-5.74,0.88-9.21,0.88h-20.58
			V0.15H147.18z M136.34,21.74h10.08c8.31,0,12.46-2.45,12.46-7.34v-0.23c0-4.87-4.15-7.3-12.46-7.3h-10.08V21.74z"/>
		<path class="st0" d="M182.31,28.58h-9.66V0.28h9.66V28.58z"/>
		<path class="st0" d="M200.77,17.41L184.44,0.25h11.86l9.48,10.31l9.64-10.31h10.79l-15.88,17.17v10.84h-9.56V17.41z"/>
		<path class="st0" d="M265.37,28.56h-9.5l-2.65-5.13H233l-2.65,5.13h-9.5l15.07-28.06h14.38L265.37,28.56z M249.96,17.1l-5.34-10.3
			h-3.02l-5.34,10.3H249.96z"/>
		<path class="st0" d="M278.55,0.25l19.75,17.85V0.25h9.56v28.37h-9.56L277.3,9.82v18.8h-9.56V0.25H278.55z"/>
		<path class="st0" d="M324.51,17.99h-2.94V28.6h-8.82V0.55h8.82v8.99h3.33l11.1-8.99h11.21l-16.21,12.82l16.97,15.23h-11.51
			L324.51,17.99z"/>
		<path class="st0" d="M392.61,28.56h-9.51l-2.65-5.13h-20.21l-2.65,5.13h-9.51l15.07-28.06h14.38L392.61,28.56z M377.2,17.1
			l-5.34-10.3h-3.02l-5.34,10.3H377.2z"/>
		<path class="st0" d="M500.76,0v28.6h-9.68L404.67,9.65V28.6h-9.68V0h10.95l85.15,17.99V0H500.76z"/>
		<path class="st0" d="M547.63,28.56h-9.5l-2.65-5.13h-20.21l-2.65,5.13h-9.5l15.07-28.06h14.38L547.63,28.56z M532.21,17.1
			l-5.34-10.3h-3.02l-5.34,10.3H532.21z"/>
	</g>
</g>
</svg>
