<?xml version="1.0" encoding="UTF-8"?>
<svg id="Layer_1" data-name="Layer 1" xmlns="http://www.w3.org/2000/svg" xmlns:xlink="http://www.w3.org/1999/xlink" viewBox="0 0 1920 979.17">
  <defs>
    <style>
      .cls-1, .cls-2, .cls-3, .cls-4 {
        fill: #fff;
      }

      .cls-5 {
        letter-spacing: 0em;
      }

      .cls-6 {
        letter-spacing: -.12em;
      }

      .cls-2 {
        font-family: OPTIVenus-BoldExtended, OPTIVenus;
        font-size: 174.85px;
        font-weight: 700;
        letter-spacing: .01em;
      }

      .cls-3 {
        font-family: StretchProRegular, 'Stretch Pro';
        font-size: 40.54px;
      }

      .cls-7 {
        font-family: HelveticaNeueLTStd-BlkEx, 'Helvetica Neue LT Std';
      }

      .cls-8 {
        letter-spacing: -.09em;
      }

      .cls-9 {
        font-family: HelveticaNeueLTStd-Roman, 'Helvetica Neue LT Std';
      }

      .cls-4 {
        font-size: 30.82px;
      }

      .cls-10 {
        letter-spacing: 0em;
      }
    </style>
  </defs>
  <text class="cls-2" transform="translate(127.58 321.7)"><tspan x="0" y="0">GRAPHIC</tspan><tspan x="0" y="177.77">DESIGNER</tspan><tspan x="0" y="355.53">&amp;ART</tspan><tspan x="0" y="533.3">DIRECTOR</tspan></text>
  <image width="3554" height="5334" transform="translate(539.51 44.83) scale(.19)" xlink:href="../../Photos for pandiyan/Pandiyan_profile.png"/>
  <path class="cls-1" d="m1217.01,569.56c-5.63,10.53-8.27,19.54-8.27,27.06,7.16-2.64,14.66-7.89,22.91-16.53,8.29-8.65,14.68-13.91,19.19-15.41,1.13-.37,3.38-.76,5.99-.76,9.41,0,17.29,7.89,17.29,18.79,0,7.89-4.14,13.15-12.03,15.78-2.61.76-5.62,1.14-8.25,1.14-3.01,0-7.52-.39-13.91-1.51-12.03-1.88-16.92-3.38-30.81-.37,4.87,6.01,12.4,11.64,22.92,16.9,10.9,4.88,17.67,9.4,20.27,13.15,2.65,3.75,3.78,7.15,3.78,10.51,0,5.26-2.65,10.16-7.89,14.28-3.41,2.64-7.15,3.77-10.9,3.77-5.66,0-10.17-2.63-13.91-7.52-3.01-4.14-5.26-11.65-6.76-23.3-1.53-11.64-4.51-20.67-8.63-27.06-4.15,6.39-7.16,15.42-8.64,27.06-1.54,11.64-3.78,19.16-6.76,23.3-3.79,4.89-8.27,7.52-13.55,7.52-3.74,0-7.52-1.13-10.9-3.77-5.26-4.12-7.88-9.02-7.88-14.65,0-3.38,1.13-6.76,3.38-10.14,2.64-3.75,9.4-8.27,20.3-13.15,10.89-5.26,18.4-10.9,22.92-16.9-4.92-1.13-9.4-1.88-12.78-1.88-4.15,0-9.41.76-16.53,1.88-7.16,1.13-12.04,1.88-15.04,1.88-12.4,0-20.68-6.78-20.68-16.92,0-1.87.4-4.14,1.13-6.39,2.65-8.26,8.29-12.4,16.18-12.4,2.61,0,4.89.39,6.02.76,4.51,1.5,10.9,6.76,19.16,15.41,8.27,8.64,16.15,13.89,23.27,16.53-.36-7.52-3.37-16.53-8.99-27.06-5.63-10.51-8.26-18.4-8.26-23.29,0-10.53,6.75-17.29,17.66-17.29s17.65,7.15,17.65,17.29c0,4.89-3,12.4-8.64,23.29"/>
  <text class="cls-3" transform="translate(127.58 76.44)"><tspan class="cls-8" x="0" y="0">P</tspan><tspan class="cls-5" x="37.25" y="0">ANDI</tspan><tspan class="cls-6" x="187.16" y="0">Y</tspan><tspan x="223.36" y="0">AN</tspan><tspan class="cls-10" x="312.74" y="0">K</tspan><tspan x="350.6" y="0">ANNAN</tspan></text>
  <text class="cls-3" transform="translate(127.58 923.22)"><tspan x="0" y="0">looking forward to hearing from you</tspan></text>
  <text class="cls-4" transform="translate(1295.02 593.64)"><tspan class="cls-9"><tspan x="0" y="0">pandiyankanna@gmail.com</tspan></tspan><tspan class="cls-7"><tspan x="0" y="41.75">+91 9788982825</tspan></tspan></text>
  <text class="cls-2" transform="translate(788.78 -17.02)"><tspan x="0" y="0">*</tspan></text>
</svg>